<?xml version="1.0" encoding="UTF-8"?>
<svg width="51px" height="68px" viewBox="0 0 51 68" version="1.1" xmlns="http://www.w3.org/2000/svg" xmlns:xlink="http://www.w3.org/1999/xlink">
    <!-- Generator: Sketch 40.3 (33839) - http://www.bohemiancoding.com/sketch -->
    <title>Group</title>
    <desc>Created with Sketch.</desc>
    <defs></defs>
    <g id="Page-1" stroke="none" stroke-width="1" fill="none" fill-rule="evenodd">
        <g id="btn-scroll" transform="translate(1.000000, -41.000000)">
            <g id="design">
                <g id="HOME_MEN-Day">
                    <g id="scroll_down">
                        <g id="Group" transform="translate(0.000000, 41.000000)">
                            <circle id="Oval-69" stroke="#979797" stroke-width="0.5" opacity="0.384794776" cx="24.5" cy="42.5" r="24.5"></circle>
                            <g id="Oval-69" transform="translate(24.000000, 42.000000) scale(1, -1) translate(-24.000000, -42.000000) translate(3.000000, 21.000000)" stroke="#979797" stroke-width="0.5">
                                <ellipse id="Oval" cx="20.98" cy="20.9473684" rx="20.46" ry="20.3947368"></ellipse>
                            </g>
                            <path d="M24.4464814,50 C24.6691618,50 24.8498879,49.8325666 24.8498879,49.6262647 L24.8498879,37.2249798 L28.3124608,40.4328745 C28.3912595,40.5058774 28.4942627,40.541756 28.5972658,40.541756 C28.7,40.541756 28.8040789,40.5058774 28.8818019,40.4328745 C29.0393994,40.2868685 29.0393994,40.0501695 28.8818019,39.9041636 L24.7869565,36.1095044 C24.629359,35.9634985 24.3738682,35.9634985 24.2165397,36.1095044 L20.1181981,39.9051602 C19.9606006,40.0511661 19.9606006,40.2878652 20.1181981,40.4336219 C20.2757956,40.5796279 20.5310175,40.5796279 20.688615,40.4336219 L24.0430749,37.3261374 L24.0430749,49.6262647 C24.0430749,49.8325666 24.223801,50 24.4464814,50 L24.4464814,50 L24.4464814,50 Z" id="Page-1" fill="#000000" transform="translate(24.500000, 43.000000) scale(1, -1) translate(-24.500000, -43.000000) "></path>
                            <path d="M24.4,46.6736111 L24.4,0.326388889" id="Line" stroke="#000000" stroke-width="0.8" fill="#000000"></path>
                        </g>
                    </g>
                </g>
            </g>
        </g>
    </g>
</svg>